<mxfile host="app.diagrams.net" modified="2023-08-21T02:41:35.838Z" agent="Mozilla/5.0 (Windows NT 10.0; Win64; x64) AppleWebKit/537.36 (KHTML, like Gecko) Chrome/115.0.0.0 Safari/537.36" version="21.6.8" etag="XLwAHLOEH0nHd4_IjBul" type="github">
  <diagram name="Page-1" id="q9CkXvKjlbe3qWkkUTDK">
    <mxGraphModel>
      <root>
        <mxCell id="0" />
        <mxCell id="1" parent="0" />
      </root>
    </mxGraphModel>
  </diagram>
</mxfile>
